<svg width="512" height="512" xmlns="http://www.w3.org/2000/svg" xmlns:xlink="http://www.w3.org/1999/xlink" xml:space="preserve" overflow="hidden"><defs><clipPath id="clip0"><rect x="384" y="104" width="512" height="512"/></clipPath></defs><g clip-path="url(#clip0)" transform="translate(-384 -104)"><path d="M640.1 228.8C567.5 228.8 508.9 287.4 508.9 360 508.9 432.6 567.5 491.2 640.1 491.2 712.7 491.2 771.3 432.6 771.3 360 771.3 287.4 712.7 228.8 640.1 228.8ZM640.1 445.3C593.2 445.3 554.8 407 554.8 360 554.8 313 593.1 274.7 640.1 274.7 687.1 274.7 725.4 313 725.4 360 725.4 407 687 445.3 640.1 445.3ZM807.3 223.4C807.3 240.4 793.6 254 776.7 254 759.7 254 746.1 240.3 746.1 223.4 746.1 206.5 759.8 192.8 776.7 192.8 793.6 192.8 807.3 206.5 807.3 223.4ZM894.2 254.5C892.3 213.5 882.9 177.2 852.9 147.2 822.9 117.3 786.6 107.9 745.6 105.9 703.3 103.5 576.7 103.5 534.4 105.9 493.5 107.8 457.2 117.2 427.1 147.1 397 177 387.9 213.3 385.8 254.3 383.4 296.6 383.4 423.2 385.8 465.5 387.7 506.5 397.1 542.8 427.1 572.8 457.1 602.7 493.3 612.1 534.4 614.1 576.7 616.5 703.3 616.5 745.6 614.1 786.6 612.2 822.9 602.8 852.9 572.8 882.8 542.9 892.2 506.6 894.2 465.5 896.6 423.3 896.6 296.7 894.2 254.5ZM839.6 510.9C830.7 533.3 813.4 550.5 790.9 559.6 757.2 573 677.2 569.9 640 569.9 602.8 569.9 522.7 572.9 489.1 559.6 466.7 550.7 449.5 533.4 440.4 510.9 427.1 477.2 430.2 397.2 430.2 360 430.2 322.8 427.2 242.7 440.5 209.1 449.4 186.7 466.7 169.5 489.2 160.4 522.9 147 602.9 150.1 640.1 150.1 677.3 150.1 757.4 147.1 791 160.4 813.4 169.3 830.6 186.6 839.7 209.1 853.1 242.8 850 322.8 850 360 850 397.2 853 477.3 839.6 510.9Z" fill="#FFFFFF" fill-rule="nonzero" fill-opacity="1"/></g></svg>