<svg width="514" height="514" xmlns="http://www.w3.org/2000/svg" xmlns:xlink="http://www.w3.org/1999/xlink" xml:space="preserve" overflow="hidden"><defs><clipPath id="clip0"><rect x="622" y="102" width="514" height="514"/></clipPath><clipPath id="clip1"><rect x="623" y="103" width="512" height="512"/></clipPath><clipPath id="clip2"><rect x="623" y="103" width="512" height="512"/></clipPath><clipPath id="clip3"><rect x="623" y="103" width="512" height="512"/></clipPath></defs><g clip-path="url(#clip0)" transform="translate(-622 -102)"><g clip-path="url(#clip1)"><g clip-path="url(#clip2)"><g clip-path="url(#clip3)"><path d="M812.5 343.4 841.9 343.4 827.2 301.6Z" fill="#FFFFFF" fill-rule="nonzero" fill-opacity="1"/><path d="M878.9 123.1C737.6 123.1 623 213.4 623 324.9 623 396.9 670.9 460.1 743.1 495.9L717 588.3C717 588.3 716.5 592.6 719.3 594.3 721.2 595.1 723.5 595.1 725.4 594.3 733.4 593.2 818.7 533.2 833.5 522.9 848.6 525 863.8 526 879 526 1020.4 526 1135 435.7 1135 324.2 1135 212.7 1020.2 123.1 878.9 123.1ZM755.3 381.2C755.1 389.2 748.5 395.5 740.5 395.3 740.4 395.3 740.4 395.3 740.3 395.3 732.3 395.5 725.7 389.2 725.5 381.3 725.5 381.3 725.5 381.3 725.5 381.3L725.5 293.5 702.7 293.5C694.7 294.1 687.7 288.2 687.1 280.2 686.5 272.2 692.4 265.2 700.4 264.6 701.2 264.5 701.9 264.5 702.7 264.6L778.3 264.6C786.3 264 793.3 269.9 793.9 277.9 794.5 285.9 788.6 292.9 780.6 293.5 779.8 293.6 779.1 293.6 778.3 293.5L755.3 293.5 755.3 381.2ZM879.1 393.2C876.2 394.5 873 395.2 869.9 395.2L869.7 395.2C864.6 395.9 859.7 393.2 857.4 388.6L850.1 369.5 805 369.5 797.7 388.7C795.3 393.2 790.4 395.8 785.4 395.2 782.2 395.2 779.1 394.5 776.2 393.2 772.1 391.4 768.3 386.2 772.7 372.2L808 279.2C811.1 270.9 818.8 265.2 827.7 264.7 836.6 265.2 844.4 270.9 847.4 279.3L882.7 372.2C887.1 386.1 883.2 391.4 879.1 393.2ZM956.3 393.2C955.6 393.3 954.8 393.3 954.1 393.2L906.7 393.2C899.1 393.3 892.8 387.2 892.6 379.6L892.6 279.3C892.6 271 899.3 264.2 907.7 264.2 916 264.2 922.8 270.9 922.8 279.3L922.8 366.1 954 366.1C961.5 365.5 968 371 968.7 378.5 969.3 386 963.8 392.5 956.3 393.2ZM1063.7 391.8C1061.1 393.8 1057.8 394.9 1054.5 394.8 1049.9 394.8 1045.5 392.6 1042.7 389L1008.1 342.8 1002.9 348 1002.9 380C1002.9 388.1 996.3 394.7 988.2 394.8L988.6 395.1C980.5 395 973.9 388.4 973.9 380.3L973.9 279.3C974.5 271.2 981.7 265.1 989.8 265.7 997 266.3 1002.8 272 1003.4 279.3L1003.4 311.1 1044.6 269.9C1046.8 267.8 1049.7 266.7 1052.6 266.9 1060.2 267.1 1066.5 273 1067.1 280.6 1067.5 284 1066.3 287.4 1063.9 289.8L1030.3 323.4 1066.6 371.6C1071.3 377.9 1070 386.9 1063.7 391.8Z" fill="#FFFFFF" fill-rule="nonzero" fill-opacity="1"/></g></g></g></g></svg>