<svg width="513" height="512" xmlns="http://www.w3.org/2000/svg" xmlns:xlink="http://www.w3.org/1999/xlink" xml:space="preserve" overflow="hidden"><defs><clipPath id="clip0"><rect x="476" y="76" width="513" height="512"/></clipPath><clipPath id="clip1"><rect x="477" y="76" width="512" height="512"/></clipPath><clipPath id="clip2"><rect x="477" y="76" width="512" height="512"/></clipPath><clipPath id="clip3"><rect x="477" y="76" width="512" height="512"/></clipPath></defs><g clip-path="url(#clip0)" transform="translate(-476 -76)"><g clip-path="url(#clip1)"><g clip-path="url(#clip2)"><g clip-path="url(#clip3)"><path d="M934.14 261.45 934.14 258.85C934.14 158.03 852.12 76 751.29 76L714.72 76C613.88 76 531.86 158.03 531.86 258.86L531.86 261.46C500.4 269.63 477 298.02 477 332L477 368.57C477 408.9 509.81 441.71 550.14 441.71L586.71 441.71C596.81 441.71 605 433.52 605 423.42L605 277.13C605 267.03 596.81 258.84 586.71 258.84L568.42 258.84C568.42 178.18 634.04 112.55 714.71 112.55L751.28 112.55C831.94 112.55 897.57 178.18 897.57 258.84L879.28 258.84C869.18 258.84 860.99 267.03 860.99 277.13L860.99 423.42C860.99 433.52 869.18 441.71 879.28 441.71L896.67 441.71C891.24 498.91 860.35 511.39 839.1 514.07 831.32 493.23 811.37 478.28 787.85 478.28 757.6 478.28 732.99 502.89 732.99 533.14 732.99 563.39 757.6 588 787.85 588 811.96 588 832.26 572.26 839.6 550.6 896.33 544.84 929.21 506 933.61 439.28 965.34 431.29 989 402.74 989 368.57L989 332C989 298.02 965.6 269.63 934.14 261.45ZM568.43 405.14 550.14 405.14C529.97 405.14 513.57 388.74 513.57 368.57L513.57 332C513.57 311.83 529.97 295.43 550.14 295.43L568.43 295.43 568.43 405.14ZM787.86 551.43C777.78 551.43 769.57 543.22 769.57 533.14 769.57 523.06 777.78 514.85 787.86 514.85 797.94 514.85 806.15 523.06 806.15 533.14 806.15 543.22 797.94 551.43 787.86 551.43ZM952.43 368.57C952.43 388.74 936.03 405.14 915.86 405.14L897.57 405.14 897.57 295.43 915.86 295.43C936.03 295.43 952.43 311.83 952.43 332L952.43 368.57Z" fill="#FFFFFF" fill-rule="nonzero" fill-opacity="1"/></g></g></g></g></svg>