<?xml version="1.0" standalone="no"?>
<!DOCTYPE svg PUBLIC "-//W3C//DTD SVG 20010904//EN"
 "http://www.w3.org/TR/2001/REC-SVG-20010904/DTD/svg10.dtd">
<svg version="1.0" xmlns="http://www.w3.org/2000/svg"
 width="700.000000pt" height="700.000000pt" viewBox="0 0 700.000000 700.000000"
 preserveAspectRatio="xMidYMid meet">
<metadata>
Created by potrace 1.14, written by Peter Selinger 2001-2017
</metadata>
<g transform="translate(0.000000,700.000000) scale(0.100000,-0.100000)"
fill="#000000" stroke="none">
<path d="M544 6985 c-161 -35 -290 -115 -397 -248 -56 -68 -79 -113 -115 -216
l-27 -76 -2 -2915 c-3 -3153 -6 -2971 49 -3107 63 -156 201 -297 361 -367 132
-59 -66 -55 3112 -53 1601 1 2921 5 2934 9 295 87 466 263 529 543 9 40 9
5839 0 5890 -46 262 -261 480 -533 540 -89 20 -5821 20 -5911 0z"/>
</g>
</svg>
