<?xml version="1.0" standalone="no"?>
<!DOCTYPE svg PUBLIC "-//W3C//DTD SVG 20010904//EN"
 "http://www.w3.org/TR/2001/REC-SVG-20010904/DTD/svg10.dtd">
<svg version="1.0" xmlns="http://www.w3.org/2000/svg"
 width="700.000000pt" height="700.000000pt" viewBox="0 0 700.000000 700.000000"
 preserveAspectRatio="xMidYMid meet">
<metadata>
Created by potrace 1.14, written by Peter Selinger 2001-2017
</metadata>
<g transform="translate(0.000000,700.000000) scale(0.100000,-0.100000)"
fill="#000000" stroke="none">
<path d="M2300 6992 c0 -7 6 -55 25 -202 2 -19 9 -75 15 -125 6 -49 13 -101
16 -115 2 -14 6 -50 10 -80 3 -30 11 -97 17 -149 l12 -94 115 -43 c63 -23 216
-79 340 -124 124 -45 234 -86 245 -90 11 -5 95 -36 186 -69 92 -33 184 -67
205 -75 22 -8 134 -49 249 -91 116 -42 251 -92 300 -110 50 -18 241 -88 425
-155 184 -67 344 -125 355 -130 21 -9 161 -60 545 -200 124 -45 268 -98 320
-117 264 -98 473 -173 482 -173 5 0 24 15 40 33 92 99 251 268 301 321 32 34
85 91 117 127 l59 65 -187 68 c-103 38 -245 90 -317 116 -244 90 -540 198
-695 255 -85 31 -173 63 -195 71 -22 9 -161 60 -310 114 -237 86 -625 228
-955 349 -58 22 -181 67 -275 101 -93 34 -197 72 -230 85 -33 13 -139 51 -235
85 -96 35 -188 68 -205 75 -16 7 -181 68 -365 135 -184 67 -352 128 -372 136
-21 7 -38 10 -38 6z"/>
<path d="M2122 6527 c-29 -77 -86 -231 -117 -317 -13 -36 -43 -119 -68 -185
-63 -171 -322 -875 -428 -1165 -50 -135 -101 -272 -113 -305 -20 -51 -235
-634 -326 -885 -44 -121 -169 -460 -300 -815 -152 -412 -250 -679 -335 -910
-18 -49 -51 -140 -74 -201 -22 -61 -41 -116 -41 -122 0 -5 12 -14 28 -20 15
-5 158 -58 317 -116 160 -59 346 -128 415 -153 69 -25 134 -49 145 -54 11 -4
139 -52 285 -105 423 -154 441 -160 530 -193 47 -17 92 -34 100 -38 8 -3 20
-7 25 -9 14 -3 556 -203 580 -213 11 -5 103 -39 205 -76 102 -36 201 -72 220
-80 19 -8 112 -42 205 -75 196 -72 312 -114 340 -125 11 -4 25 -9 30 -11 14
-4 421 -154 690 -254 121 -45 231 -85 246 -87 25 -5 27 1 123 264 54 147 109
295 121 328 13 33 51 137 86 230 114 311 120 330 133 365 7 19 31 85 54 145
175 477 297 808 334 910 25 66 66 176 91 245 25 69 91 249 147 400 56 151 122
331 147 400 25 69 49 134 54 145 4 11 52 139 104 285 53 146 100 274 106 285
5 11 25 65 45 120 60 167 98 269 193 528 50 136 91 250 91 254 0 4 -55 -50
-122 -120 -105 -107 -130 -128 -168 -137 -54 -14 -105 -7 -190 27 -35 14 -69
26 -75 28 -5 1 -17 5 -25 8 -13 5 -718 263 -865 317 -62 22 -244 89 -350 128
-44 16 -231 85 -415 152 -184 67 -393 143 -465 170 -71 27 -223 82 -337 124
-462 169 -1060 388 -1158 424 -24 9 -60 33 -80 54 -39 40 -56 82 -65 168 -4
30 -8 66 -10 79 -3 13 -10 69 -16 125 -7 56 -15 106 -18 113 -3 7 -17 -16 -29
-50z m1186 -2226 c7 0 24 -12 37 -26 l25 -24 0 -406 c0 -317 -3 -405 -12 -406
-7 0 -71 -1 -142 -2 l-128 0 0 384 c1 211 1 407 1 434 l1 51 103 -2 c56 -1
108 -2 115 -3z m1774 -23 l28 -30 1 -162 c2 -320 3 -356 8 -357 3 -1 37 -2 74
-4 75 -2 103 -19 109 -65 3 -25 3 -25 -93 -28 l-96 -3 0 -97 c-1 -53 -2 -127
-2 -164 l-1 -68 -140 0 -140 0 0 504 0 503 112 0 c112 1 112 0 140 -29z
m-2646 13 c18 -1 20 -6 16 -60 -14 -205 154 -445 446 -641 l23 -15 -26 -37
-25 -37 -72 20 c-158 43 -294 126 -423 256 -41 42 -75 72 -75 66 0 -19 -195
-208 -258 -250 -71 -47 -154 -81 -214 -87 -34 -3 -45 0 -64 21 -13 14 -24 29
-24 32 0 3 20 18 44 34 108 68 235 213 293 337 43 90 83 249 83 326 0 26 4 33
23 36 18 2 150 2 253 -1z m2175 -45 c2 -31 -3 -166 -7 -196 -32 -228 -85 -351
-199 -466 -150 -151 -338 -211 -672 -217 -56 -1 -104 1 -107 4 -3 3 -8 19 -12
35 l-6 30 106 16 c266 43 440 146 528 313 46 89 66 165 73 288 5 76 3 97 -7
98 -7 1 -139 3 -293 4 -154 1 -288 3 -298 4 -25 1 -77 55 -77 78 0 19 16 19
485 19 334 0 485 -3 486 -10z m-1294 -941 c17 -10 36 -29 42 -42 7 -14 11 -91
11 -188 l0 -164 -552 0 c-304 0 -565 0 -580 -1 l-28 0 0 -107 c0 -85 3 -110
17 -125 15 -17 46 -18 572 -18 306 0 566 -3 578 -6 20 -6 32 -25 39 -61 1 -6
-5 -13 -15 -15 -9 -2 -327 -3 -707 -2 -665 1 -692 1 -716 20 -49 36 -52 48
-53 232 l-1 172 35 1 c20 0 281 1 581 2 l545 2 2 80 c3 92 -8 128 -43 144 -18
8 -181 11 -548 11 -484 0 -525 1 -545 18 -23 18 -34 53 -21 62 5 3 311 5 682
5 640 -1 675 -2 705 -20z m1720 -140 c18 -8 42 -29 53 -47 19 -31 20 -50 20
-286 l0 -252 -662 2 c-645 3 -664 4 -690 23 -15 11 -31 30 -37 42 -10 21 -13
154 -12 414 l1 117 648 0 c515 0 654 -3 679 -13z"/>
<path d="M3990 2895 c0 -182 1 -196 20 -215 11 -11 23 -20 28 -21 10 -1 718
-1 760 0 l32 1 0 194 0 195 -26 20 c-26 20 -37 21 -420 21 l-394 0 0 -195z"/>
</g>
</svg>
