<svg width="710" height="782" viewBox="0 0 710 782" fill="none" xmlns="http://www.w3.org/2000/svg">
<g clip-path="url(#clip0_223_2738)">
<path d="M232.45 86.67L651.77 240.67C652.235 240.556 652.649 240.292 652.95 239.92L709.51 179.35L221.18 0L232 85.59C232.02 85.9913 232.179 86.3732 232.45 86.67Z" fill="#d9d9d9"/>
<path d="M651.71 262.48C649.629 262.48 647.558 262.184 645.56 261.6C645.12 261.46 644.67 261.32 644.23 261.16L224.88 107.16C224.171 106.897 223.477 106.597 222.8 106.26C219.387 104.534 216.459 101.984 214.28 98.841C212.101 95.6981 210.74 92.0614 210.32 88.26L204.71 44.05L0 601.69L489.17 781.81L691.55 230.59L668.94 254.81C666.747 257.201 664.085 259.115 661.122 260.434C658.158 261.754 654.954 262.45 651.71 262.48ZM309.1 301.08H331.1C332.344 301.08 333.575 301.325 334.724 301.801C335.873 302.277 336.917 302.974 337.796 303.854C338.676 304.733 339.373 305.777 339.849 306.926C340.325 308.075 340.57 309.306 340.57 310.55V398H309.1V301.08ZM163.34 390.62L158.76 383.93C187.31 366.72 204.08 340.29 206.2 302.42H238.87C234.12 330.18 251.94 356.92 290.39 382.6L285.04 390.6C260.53 386.11 239.54 373.32 222.23 351.84C199.24 380.47 180.09 391.15 163.34 390.62ZM345.7 494.18H192.39C188.963 494.18 185.677 492.819 183.254 490.396C180.831 487.973 179.47 484.687 179.47 481.26V446.74H309.1V428.86C309.1 427.698 308.871 426.548 308.426 425.475C307.981 424.402 307.329 423.427 306.507 422.606C305.685 421.785 304.71 421.134 303.636 420.69C302.562 420.246 301.412 420.019 300.25 420.02H186.83C184.877 420.017 183.005 419.24 181.625 417.858C180.245 416.476 179.47 414.603 179.47 412.65V410.65H328.36C331.612 410.65 334.73 411.942 337.029 414.241C339.328 416.54 340.62 419.658 340.62 422.91V456.6H211.54V479.06C211.54 480.588 212.147 482.053 213.227 483.133C214.307 484.213 215.772 484.82 217.3 484.82H338.84C339.741 484.82 340.633 484.997 341.465 485.342C342.298 485.687 343.054 486.192 343.691 486.829C344.328 487.466 344.833 488.223 345.178 489.055C345.523 489.887 345.7 490.779 345.7 491.68V494.18ZM369.23 406L366.67 398C415.83 393.7 448.73 373.32 446.07 317.8H381.69C380.23 317.8 378.784 317.512 377.435 316.954C376.085 316.395 374.86 315.576 373.827 314.543C372.794 313.51 371.975 312.285 371.416 310.935C370.858 309.586 370.57 308.14 370.57 306.68V306.44H479.07C480.52 394.45 429.62 407.05 369.23 406ZM534.61 493.87H392.18C388.486 493.87 384.942 492.402 382.33 489.79C379.718 487.178 378.25 483.634 378.25 479.94V427H520.68C522.515 427 524.332 427.363 526.027 428.067C527.722 428.771 529.26 429.804 530.555 431.105C531.849 432.406 532.874 433.95 533.57 435.648C534.266 437.346 534.619 439.165 534.61 441V493.87ZM556.14 376.31L534.94 376.6L534.76 413.35H503.24V300.78H525.24C530.47 300.78 534.71 305.7 534.71 311.78L534.89 365.89L548.53 365.98C550.54 365.991 552.465 366.797 553.882 368.224C555.299 369.65 556.093 371.58 556.09 373.59L556.14 376.31Z" fill="#d9d9d9"/>
<path d="M495.74 437.05H409.66V477.62C409.66 479.606 410.449 481.512 411.854 482.916C413.258 484.321 415.164 485.11 417.15 485.11H503.24V444.55C503.24 442.561 502.45 440.653 501.043 439.247C499.637 437.84 497.729 437.05 495.74 437.05Z" fill="#d9d9d9"/>
</g>
<defs>
<clipPath id="clip0_223_2738">
<rect width="709.51" height="781.81" fill="#d9d9d9"/>
</clipPath>
</defs>
</svg>
